<mxfile host="app.diagrams.net" agent="Mozilla/5.0 (X11; Ubuntu; Linux x86_64; rv:129.0) Gecko/20100101 Firefox/129.0" version="24.7.7">
  <diagram name="Page-1" id="zJmTLb1tvvRPAMvF67Xo">
    <mxGraphModel dx="1362" dy="671" grid="1" gridSize="10" guides="1" tooltips="1" connect="1" arrows="1" fold="1" page="1" pageScale="1" pageWidth="827" pageHeight="1169" math="0" shadow="0">
      <root>
        <mxCell id="0" />
        <mxCell id="1" parent="0" />
        <mxCell id="rd1JNepwzcPe7j2IbGUV-1" value="" style="rounded=0;whiteSpace=wrap;html=1;verticalAlign=middle;labelPosition=center;verticalLabelPosition=middle;align=center;" parent="1" vertex="1">
          <mxGeometry x="411.5" y="250" width="120" height="60" as="geometry" />
        </mxCell>
        <mxCell id="rd1JNepwzcPe7j2IbGUV-2" value="PROD_LABEL" style="rounded=0;whiteSpace=wrap;html=1;fillColor=#dae8fc;strokeColor=#6c8ebf;verticalAlign=middle;labelPosition=center;verticalLabelPosition=middle;align=center;" parent="1" vertex="1">
          <mxGeometry x="411.5" y="250" width="120" height="60" as="geometry" />
        </mxCell>
        <mxCell id="rd1JNepwzcPe7j2IbGUV-3" value="&lt;b&gt;&lt;u&gt;VEND_CODE&lt;/u&gt;&lt;/b&gt;" style="rounded=0;whiteSpace=wrap;html=1;fillColor=#ffe6cc;strokeColor=#d79b00;verticalAlign=middle;labelPosition=center;verticalLabelPosition=middle;align=center;" parent="1" vertex="1">
          <mxGeometry x="531.5" y="250" width="120" height="60" as="geometry" />
        </mxCell>
        <mxCell id="rd1JNepwzcPe7j2IbGUV-4" value="SALE_DATE" style="rounded=0;whiteSpace=wrap;html=1;fillColor=#dae8fc;strokeColor=#6c8ebf;verticalAlign=middle;labelPosition=center;verticalLabelPosition=middle;align=center;" parent="1" vertex="1">
          <mxGeometry x="291.5" y="250" width="120" height="60" as="geometry" />
        </mxCell>
        <mxCell id="rd1JNepwzcPe7j2IbGUV-5" value="&lt;b&gt;&lt;u&gt;PROD_NUM&lt;/u&gt;&lt;/b&gt;" style="rounded=0;whiteSpace=wrap;html=1;fillColor=#ffe6cc;strokeColor=#d79b00;verticalAlign=middle;labelPosition=center;verticalLabelPosition=middle;align=center;" parent="1" vertex="1">
          <mxGeometry x="171.5" y="250" width="120" height="60" as="geometry" />
        </mxCell>
        <mxCell id="rd1JNepwzcPe7j2IbGUV-6" value="&lt;b&gt;&lt;u&gt;INV_NUM&lt;/u&gt;&lt;/b&gt;" style="rounded=0;whiteSpace=wrap;html=1;fillColor=#ffe6cc;strokeColor=#d79b00;verticalAlign=middle;labelPosition=center;verticalLabelPosition=middle;align=center;" parent="1" vertex="1">
          <mxGeometry x="61.5" y="250" width="120" height="60" as="geometry" />
        </mxCell>
        <mxCell id="rd1JNepwzcPe7j2IbGUV-7" value="VEND_NAME" style="rounded=0;whiteSpace=wrap;html=1;fillColor=#dae8fc;strokeColor=#6c8ebf;verticalAlign=middle;labelPosition=center;verticalLabelPosition=middle;align=center;" parent="1" vertex="1">
          <mxGeometry x="651.5" y="250" width="120" height="60" as="geometry" />
        </mxCell>
        <mxCell id="rd1JNepwzcPe7j2IbGUV-8" value="QUANT_SOLD" style="rounded=0;whiteSpace=wrap;html=1;fillColor=#dae8fc;strokeColor=#6c8ebf;verticalAlign=middle;labelPosition=center;verticalLabelPosition=middle;align=center;" parent="1" vertex="1">
          <mxGeometry x="771.5" y="250" width="120" height="60" as="geometry" />
        </mxCell>
        <mxCell id="rd1JNepwzcPe7j2IbGUV-9" value="PROD_PRICE" style="rounded=0;whiteSpace=wrap;html=1;fillColor=#dae8fc;strokeColor=#6c8ebf;verticalAlign=middle;labelPosition=center;verticalLabelPosition=middle;align=center;" parent="1" vertex="1">
          <mxGeometry x="888.5" y="250" width="120" height="60" as="geometry" />
        </mxCell>
        <mxCell id="rd1JNepwzcPe7j2IbGUV-11" value="" style="endArrow=none;html=1;rounded=0;exitX=0.5;exitY=0;exitDx=0;exitDy=0;verticalAlign=middle;labelPosition=center;verticalLabelPosition=middle;align=center;" parent="1" source="rd1JNepwzcPe7j2IbGUV-6" edge="1">
          <mxGeometry width="50" height="50" relative="1" as="geometry">
            <mxPoint x="81.5" y="220" as="sourcePoint" />
            <mxPoint x="121.5" y="210" as="targetPoint" />
          </mxGeometry>
        </mxCell>
        <mxCell id="rd1JNepwzcPe7j2IbGUV-12" value="" style="endArrow=none;html=1;rounded=0;verticalAlign=middle;labelPosition=center;verticalLabelPosition=middle;align=center;" parent="1" edge="1">
          <mxGeometry width="50" height="50" relative="1" as="geometry">
            <mxPoint x="121.5" y="210" as="sourcePoint" />
            <mxPoint x="231.5" y="210" as="targetPoint" />
          </mxGeometry>
        </mxCell>
        <mxCell id="rd1JNepwzcPe7j2IbGUV-13" value="" style="endArrow=none;html=1;rounded=0;exitX=0.5;exitY=0;exitDx=0;exitDy=0;verticalAlign=middle;labelPosition=center;verticalLabelPosition=middle;align=center;" parent="1" source="rd1JNepwzcPe7j2IbGUV-5" edge="1">
          <mxGeometry width="50" height="50" relative="1" as="geometry">
            <mxPoint x="211.5" y="250" as="sourcePoint" />
            <mxPoint x="231.5" y="210" as="targetPoint" />
          </mxGeometry>
        </mxCell>
        <mxCell id="rd1JNepwzcPe7j2IbGUV-15" value="" style="endArrow=none;html=1;rounded=0;verticalAlign=middle;labelPosition=center;verticalLabelPosition=middle;align=center;" parent="1" edge="1">
          <mxGeometry width="50" height="50" relative="1" as="geometry">
            <mxPoint x="351.5" y="170" as="sourcePoint" />
            <mxPoint x="941.5" y="170" as="targetPoint" />
          </mxGeometry>
        </mxCell>
        <mxCell id="rd1JNepwzcPe7j2IbGUV-19" value="" style="endArrow=classic;html=1;rounded=0;entryX=0.433;entryY=-0.033;entryDx=0;entryDy=0;entryPerimeter=0;verticalAlign=middle;labelPosition=center;verticalLabelPosition=middle;align=center;" parent="1" target="rd1JNepwzcPe7j2IbGUV-9" edge="1">
          <mxGeometry width="50" height="50" relative="1" as="geometry">
            <mxPoint x="941.5" y="170" as="sourcePoint" />
            <mxPoint x="991.5" y="120" as="targetPoint" />
          </mxGeometry>
        </mxCell>
        <mxCell id="rd1JNepwzcPe7j2IbGUV-20" value="" style="endArrow=classic;html=1;rounded=0;entryX=0.5;entryY=0;entryDx=0;entryDy=0;verticalAlign=middle;labelPosition=center;verticalLabelPosition=middle;align=center;" parent="1" target="rd1JNepwzcPe7j2IbGUV-4" edge="1">
          <mxGeometry width="50" height="50" relative="1" as="geometry">
            <mxPoint x="351.5" y="170" as="sourcePoint" />
            <mxPoint x="401.5" y="120" as="targetPoint" />
          </mxGeometry>
        </mxCell>
        <mxCell id="rd1JNepwzcPe7j2IbGUV-21" value="" style="endArrow=classic;html=1;rounded=0;verticalAlign=middle;labelPosition=center;verticalLabelPosition=middle;align=center;" parent="1" target="rd1JNepwzcPe7j2IbGUV-2" edge="1">
          <mxGeometry width="50" height="50" relative="1" as="geometry">
            <mxPoint x="471.5" y="170" as="sourcePoint" />
            <mxPoint x="521.5" y="120" as="targetPoint" />
          </mxGeometry>
        </mxCell>
        <mxCell id="rd1JNepwzcPe7j2IbGUV-23" value="" style="endArrow=classic;html=1;rounded=0;entryX=0.5;entryY=0;entryDx=0;entryDy=0;verticalAlign=middle;labelPosition=center;verticalLabelPosition=middle;align=center;" parent="1" target="rd1JNepwzcPe7j2IbGUV-7" edge="1">
          <mxGeometry width="50" height="50" relative="1" as="geometry">
            <mxPoint x="711.5" y="170" as="sourcePoint" />
            <mxPoint x="761.5" y="120" as="targetPoint" />
          </mxGeometry>
        </mxCell>
        <mxCell id="rd1JNepwzcPe7j2IbGUV-24" value="" style="endArrow=classic;html=1;rounded=0;entryX=0.5;entryY=0;entryDx=0;entryDy=0;verticalAlign=middle;labelPosition=center;verticalLabelPosition=middle;align=center;" parent="1" target="rd1JNepwzcPe7j2IbGUV-8" edge="1">
          <mxGeometry width="50" height="50" relative="1" as="geometry">
            <mxPoint x="831.5" y="170" as="sourcePoint" />
            <mxPoint x="881.5" y="120" as="targetPoint" />
          </mxGeometry>
        </mxCell>
        <mxCell id="MA4NjYnAYvALY4JWosla-1" value="" style="endArrow=none;html=1;rounded=0;verticalAlign=middle;labelPosition=center;verticalLabelPosition=middle;align=center;" edge="1" parent="1">
          <mxGeometry width="50" height="50" relative="1" as="geometry">
            <mxPoint x="591.5" y="370" as="sourcePoint" />
            <mxPoint x="711.5" y="370" as="targetPoint" />
          </mxGeometry>
        </mxCell>
        <mxCell id="MA4NjYnAYvALY4JWosla-3" value="" style="endArrow=classic;html=1;rounded=0;entryX=0.5;entryY=1;entryDx=0;entryDy=0;verticalAlign=middle;labelPosition=center;verticalLabelPosition=middle;align=center;" edge="1" parent="1" target="rd1JNepwzcPe7j2IbGUV-7">
          <mxGeometry width="50" height="50" relative="1" as="geometry">
            <mxPoint x="711.5" y="370" as="sourcePoint" />
            <mxPoint x="761.5" y="320" as="targetPoint" />
          </mxGeometry>
        </mxCell>
        <mxCell id="MA4NjYnAYvALY4JWosla-6" value="" style="endArrow=none;html=1;rounded=0;entryX=0.5;entryY=1;entryDx=0;entryDy=0;verticalAlign=middle;labelPosition=center;verticalLabelPosition=middle;align=center;" edge="1" parent="1" target="rd1JNepwzcPe7j2IbGUV-3">
          <mxGeometry width="50" height="50" relative="1" as="geometry">
            <mxPoint x="591.5" y="370" as="sourcePoint" />
            <mxPoint x="641.5" y="320" as="targetPoint" />
          </mxGeometry>
        </mxCell>
        <mxCell id="MA4NjYnAYvALY4JWosla-7" value="" style="endArrow=none;html=1;rounded=0;entryX=0.5;entryY=1;entryDx=0;entryDy=0;verticalAlign=middle;labelPosition=center;verticalLabelPosition=middle;align=center;" edge="1" parent="1" target="rd1JNepwzcPe7j2IbGUV-2">
          <mxGeometry width="50" height="50" relative="1" as="geometry">
            <mxPoint x="471.5" y="410" as="sourcePoint" />
            <mxPoint x="521.5" y="320" as="targetPoint" />
          </mxGeometry>
        </mxCell>
        <mxCell id="MA4NjYnAYvALY4JWosla-8" value="" style="endArrow=none;html=1;rounded=0;verticalAlign=middle;labelPosition=center;verticalLabelPosition=middle;align=center;" edge="1" parent="1">
          <mxGeometry width="50" height="50" relative="1" as="geometry">
            <mxPoint x="471.5" y="410" as="sourcePoint" />
            <mxPoint x="941.5" y="410" as="targetPoint" />
          </mxGeometry>
        </mxCell>
        <mxCell id="MA4NjYnAYvALY4JWosla-9" value="" style="endArrow=classic;html=1;rounded=0;verticalAlign=middle;labelPosition=center;verticalLabelPosition=middle;align=center;" edge="1" parent="1">
          <mxGeometry width="50" height="50" relative="1" as="geometry">
            <mxPoint x="941.5" y="410" as="sourcePoint" />
            <mxPoint x="941.5" y="310" as="targetPoint" />
          </mxGeometry>
        </mxCell>
        <mxCell id="MA4NjYnAYvALY4JWosla-10" value="" style="endArrow=none;html=1;rounded=0;verticalAlign=middle;labelPosition=center;verticalLabelPosition=middle;align=center;" edge="1" parent="1">
          <mxGeometry width="50" height="50" relative="1" as="geometry">
            <mxPoint x="241.5" y="450" as="sourcePoint" />
            <mxPoint x="240.5" y="310" as="targetPoint" />
          </mxGeometry>
        </mxCell>
        <mxCell id="MA4NjYnAYvALY4JWosla-11" value="" style="endArrow=none;html=1;rounded=0;verticalAlign=middle;labelPosition=center;verticalLabelPosition=middle;align=center;" edge="1" parent="1">
          <mxGeometry width="50" height="50" relative="1" as="geometry">
            <mxPoint x="241.5" y="450" as="sourcePoint" />
            <mxPoint x="961.5" y="450" as="targetPoint" />
          </mxGeometry>
        </mxCell>
        <mxCell id="MA4NjYnAYvALY4JWosla-12" value="" style="endArrow=classic;html=1;rounded=0;verticalAlign=middle;labelPosition=center;verticalLabelPosition=middle;align=center;" edge="1" parent="1">
          <mxGeometry width="50" height="50" relative="1" as="geometry">
            <mxPoint x="441.5" y="450" as="sourcePoint" />
            <mxPoint x="441.5" y="310" as="targetPoint" />
          </mxGeometry>
        </mxCell>
        <mxCell id="MA4NjYnAYvALY4JWosla-13" value="" style="endArrow=classic;html=1;rounded=0;verticalAlign=middle;labelPosition=center;verticalLabelPosition=middle;align=center;" edge="1" parent="1">
          <mxGeometry width="50" height="50" relative="1" as="geometry">
            <mxPoint x="961.5" y="450" as="sourcePoint" />
            <mxPoint x="960.5" y="310" as="targetPoint" />
          </mxGeometry>
        </mxCell>
        <mxCell id="MA4NjYnAYvALY4JWosla-14" value="" style="endArrow=none;html=1;rounded=0;verticalAlign=middle;labelPosition=center;verticalLabelPosition=middle;align=center;" edge="1" parent="1">
          <mxGeometry width="50" height="50" relative="1" as="geometry">
            <mxPoint x="591.5" y="250" as="sourcePoint" />
            <mxPoint x="591.5" y="210" as="targetPoint" />
          </mxGeometry>
        </mxCell>
        <mxCell id="MA4NjYnAYvALY4JWosla-15" value="" style="endArrow=none;html=1;rounded=0;verticalAlign=middle;labelPosition=center;verticalLabelPosition=middle;align=center;" edge="1" parent="1">
          <mxGeometry width="50" height="50" relative="1" as="geometry">
            <mxPoint x="231.5" y="210" as="sourcePoint" />
            <mxPoint x="591.5" y="210" as="targetPoint" />
          </mxGeometry>
        </mxCell>
        <mxCell id="MA4NjYnAYvALY4JWosla-16" value="" style="endArrow=none;html=1;rounded=0;entryX=0.5;entryY=1;entryDx=0;entryDy=0;verticalAlign=middle;labelPosition=center;verticalLabelPosition=middle;align=center;" edge="1" parent="1" target="rd1JNepwzcPe7j2IbGUV-6">
          <mxGeometry width="50" height="50" relative="1" as="geometry">
            <mxPoint x="121.5" y="370" as="sourcePoint" />
            <mxPoint x="171.5" y="320" as="targetPoint" />
          </mxGeometry>
        </mxCell>
        <mxCell id="MA4NjYnAYvALY4JWosla-17" value="" style="endArrow=none;html=1;rounded=0;verticalAlign=middle;labelPosition=center;verticalLabelPosition=middle;align=center;" edge="1" parent="1">
          <mxGeometry width="50" height="50" relative="1" as="geometry">
            <mxPoint x="121.5" y="370" as="sourcePoint" />
            <mxPoint x="351.5" y="370" as="targetPoint" />
          </mxGeometry>
        </mxCell>
        <mxCell id="MA4NjYnAYvALY4JWosla-18" value="" style="endArrow=classic;html=1;rounded=0;entryX=0.5;entryY=1;entryDx=0;entryDy=0;verticalAlign=middle;labelPosition=center;verticalLabelPosition=middle;align=center;" edge="1" parent="1" target="rd1JNepwzcPe7j2IbGUV-4">
          <mxGeometry width="50" height="50" relative="1" as="geometry">
            <mxPoint x="351.5" y="370" as="sourcePoint" />
            <mxPoint x="401.5" y="320" as="targetPoint" />
          </mxGeometry>
        </mxCell>
        <mxCell id="MA4NjYnAYvALY4JWosla-19" value="&lt;b&gt;The table in the first normal form (1NF) &lt;/b&gt;" style="text;html=1;align=center;verticalAlign=middle;resizable=0;points=[];autosize=1;strokeColor=none;fillColor=none;fontSize=17;" vertex="1" parent="1">
          <mxGeometry x="356.5" y="485" width="340" height="30" as="geometry" />
        </mxCell>
        <mxCell id="MA4NjYnAYvALY4JWosla-20" value="&lt;b&gt;&lt;u&gt;INV_NUM&lt;/u&gt;&lt;/b&gt;" style="rounded=0;whiteSpace=wrap;html=1;fillColor=#ffe6cc;strokeColor=#d79b00;" vertex="1" parent="1">
          <mxGeometry x="400" y="740" width="120" height="60" as="geometry" />
        </mxCell>
        <mxCell id="MA4NjYnAYvALY4JWosla-21" value="SALE_DATE" style="rounded=0;whiteSpace=wrap;html=1;fillColor=#dae8fc;strokeColor=#6c8ebf;" vertex="1" parent="1">
          <mxGeometry x="520" y="740" width="120" height="60" as="geometry" />
        </mxCell>
        <mxCell id="MA4NjYnAYvALY4JWosla-22" value="" style="endArrow=none;html=1;rounded=0;" edge="1" parent="1">
          <mxGeometry width="50" height="50" relative="1" as="geometry">
            <mxPoint x="460" y="740" as="sourcePoint" />
            <mxPoint x="460" y="680" as="targetPoint" />
          </mxGeometry>
        </mxCell>
        <mxCell id="MA4NjYnAYvALY4JWosla-23" value="" style="endArrow=none;html=1;rounded=0;" edge="1" parent="1">
          <mxGeometry width="50" height="50" relative="1" as="geometry">
            <mxPoint x="460" y="680" as="sourcePoint" />
            <mxPoint x="580" y="680" as="targetPoint" />
          </mxGeometry>
        </mxCell>
        <mxCell id="MA4NjYnAYvALY4JWosla-24" value="" style="endArrow=classic;html=1;rounded=0;entryX=0.5;entryY=0;entryDx=0;entryDy=0;" edge="1" parent="1" target="MA4NjYnAYvALY4JWosla-21">
          <mxGeometry width="50" height="50" relative="1" as="geometry">
            <mxPoint x="580" y="680" as="sourcePoint" />
            <mxPoint x="630" y="630" as="targetPoint" />
          </mxGeometry>
        </mxCell>
        <mxCell id="MA4NjYnAYvALY4JWosla-25" value="&lt;b&gt;&lt;font style=&quot;font-size: 16px;&quot;&gt;Table name: INVOICE&lt;/font&gt;&lt;/b&gt;" style="text;html=1;align=center;verticalAlign=middle;whiteSpace=wrap;rounded=0;" vertex="1" parent="1">
          <mxGeometry x="420" y="640" width="200" height="30" as="geometry" />
        </mxCell>
        <mxCell id="MA4NjYnAYvALY4JWosla-26" value="&lt;b&gt;&lt;u&gt;PROD_NUM&lt;/u&gt;&lt;/b&gt;" style="rounded=0;whiteSpace=wrap;html=1;fillColor=#ffe6cc;strokeColor=#d79b00;" vertex="1" parent="1">
          <mxGeometry x="400" y="960" width="120" height="60" as="geometry" />
        </mxCell>
        <mxCell id="MA4NjYnAYvALY4JWosla-27" value="PROD_LABEL" style="rounded=0;whiteSpace=wrap;html=1;fillColor=#dae8fc;strokeColor=#6c8ebf;" vertex="1" parent="1">
          <mxGeometry x="520" y="960" width="120" height="60" as="geometry" />
        </mxCell>
        <mxCell id="MA4NjYnAYvALY4JWosla-28" value="PROD_PRICE" style="rounded=0;whiteSpace=wrap;html=1;fillColor=#dae8fc;strokeColor=#6c8ebf;" vertex="1" parent="1">
          <mxGeometry x="640" y="960" width="120" height="60" as="geometry" />
        </mxCell>
        <mxCell id="MA4NjYnAYvALY4JWosla-29" value="" style="endArrow=none;html=1;rounded=0;" edge="1" parent="1">
          <mxGeometry width="50" height="50" relative="1" as="geometry">
            <mxPoint x="460" y="960" as="sourcePoint" />
            <mxPoint x="460" y="900" as="targetPoint" />
          </mxGeometry>
        </mxCell>
        <mxCell id="MA4NjYnAYvALY4JWosla-30" value="" style="endArrow=none;html=1;rounded=0;" edge="1" parent="1">
          <mxGeometry width="50" height="50" relative="1" as="geometry">
            <mxPoint x="460" y="900" as="sourcePoint" />
            <mxPoint x="700" y="900" as="targetPoint" />
          </mxGeometry>
        </mxCell>
        <mxCell id="MA4NjYnAYvALY4JWosla-31" value="" style="endArrow=classic;html=1;rounded=0;entryX=0.5;entryY=0;entryDx=0;entryDy=0;" edge="1" parent="1" target="MA4NjYnAYvALY4JWosla-28">
          <mxGeometry width="50" height="50" relative="1" as="geometry">
            <mxPoint x="700" y="900" as="sourcePoint" />
            <mxPoint x="750" y="850" as="targetPoint" />
          </mxGeometry>
        </mxCell>
        <mxCell id="MA4NjYnAYvALY4JWosla-32" value="" style="endArrow=classic;html=1;rounded=0;entryX=0.5;entryY=0;entryDx=0;entryDy=0;" edge="1" parent="1" target="MA4NjYnAYvALY4JWosla-27">
          <mxGeometry width="50" height="50" relative="1" as="geometry">
            <mxPoint x="580" y="900" as="sourcePoint" />
            <mxPoint x="630" y="850" as="targetPoint" />
          </mxGeometry>
        </mxCell>
        <mxCell id="MA4NjYnAYvALY4JWosla-33" value="&lt;font style=&quot;font-size: 16px;&quot;&gt;&lt;b&gt;&lt;font style=&quot;font-size: 16px;&quot;&gt;Table name: PRODUCT&lt;/font&gt;&lt;/b&gt;&lt;/font&gt;" style="text;html=1;align=center;verticalAlign=middle;whiteSpace=wrap;rounded=0;" vertex="1" parent="1">
          <mxGeometry x="470" y="850" width="230" height="40" as="geometry" />
        </mxCell>
        <mxCell id="MA4NjYnAYvALY4JWosla-34" value="&lt;b&gt;&lt;u&gt;VEND_CODE&lt;/u&gt;&lt;/b&gt;" style="rounded=0;whiteSpace=wrap;html=1;fillColor=#ffe6cc;strokeColor=#d79b00;" vertex="1" parent="1">
          <mxGeometry x="400" y="1180" width="120" height="60" as="geometry" />
        </mxCell>
        <mxCell id="MA4NjYnAYvALY4JWosla-36" value="VEND_NAME" style="rounded=0;whiteSpace=wrap;html=1;fillColor=#dae8fc;strokeColor=#6c8ebf;" vertex="1" parent="1">
          <mxGeometry x="520" y="1180" width="120" height="60" as="geometry" />
        </mxCell>
        <mxCell id="MA4NjYnAYvALY4JWosla-37" value="" style="endArrow=none;html=1;rounded=0;" edge="1" parent="1">
          <mxGeometry width="50" height="50" relative="1" as="geometry">
            <mxPoint x="460" y="1180" as="sourcePoint" />
            <mxPoint x="460" y="1120" as="targetPoint" />
          </mxGeometry>
        </mxCell>
        <mxCell id="MA4NjYnAYvALY4JWosla-38" value="" style="endArrow=none;html=1;rounded=0;" edge="1" parent="1">
          <mxGeometry width="50" height="50" relative="1" as="geometry">
            <mxPoint x="460" y="1120" as="sourcePoint" />
            <mxPoint x="580" y="1120" as="targetPoint" />
          </mxGeometry>
        </mxCell>
        <mxCell id="MA4NjYnAYvALY4JWosla-39" value="" style="endArrow=classic;html=1;rounded=0;entryX=0.5;entryY=0;entryDx=0;entryDy=0;" edge="1" parent="1" target="MA4NjYnAYvALY4JWosla-36">
          <mxGeometry width="50" height="50" relative="1" as="geometry">
            <mxPoint x="580" y="1120" as="sourcePoint" />
            <mxPoint x="630" y="1070" as="targetPoint" />
          </mxGeometry>
        </mxCell>
        <mxCell id="MA4NjYnAYvALY4JWosla-40" value="&lt;font size=&quot;1&quot;&gt;&lt;b style=&quot;font-size: 16px;&quot;&gt;Table name: VENDOR&lt;/b&gt;&lt;/font&gt;" style="text;html=1;align=center;verticalAlign=middle;whiteSpace=wrap;rounded=0;" vertex="1" parent="1">
          <mxGeometry x="430" y="1080" width="180" height="30" as="geometry" />
        </mxCell>
        <mxCell id="MA4NjYnAYvALY4JWosla-41" value="&lt;b&gt;&lt;u&gt;PROD_NUM&lt;/u&gt;&lt;/b&gt;" style="rounded=0;whiteSpace=wrap;html=1;fillColor=#ffe6cc;strokeColor=#d79b00;" vertex="1" parent="1">
          <mxGeometry x="400" y="1400" width="120" height="60" as="geometry" />
        </mxCell>
        <mxCell id="MA4NjYnAYvALY4JWosla-42" value="&lt;b&gt;&lt;u&gt;INV_NUM&lt;/u&gt;&lt;/b&gt;" style="rounded=0;whiteSpace=wrap;html=1;fillColor=#ffe6cc;strokeColor=#d79b00;" vertex="1" parent="1">
          <mxGeometry x="280" y="1400" width="120" height="60" as="geometry" />
        </mxCell>
        <mxCell id="MA4NjYnAYvALY4JWosla-43" value="&lt;b&gt;&lt;u&gt;VEND_CODE&lt;/u&gt;&lt;/b&gt;" style="rounded=0;whiteSpace=wrap;html=1;fillColor=#ffe6cc;strokeColor=#d79b00;" vertex="1" parent="1">
          <mxGeometry x="520" y="1400" width="120" height="60" as="geometry" />
        </mxCell>
        <mxCell id="MA4NjYnAYvALY4JWosla-44" value="QUANT_SOLD" style="rounded=0;whiteSpace=wrap;html=1;fillColor=#dae8fc;strokeColor=#6c8ebf;" vertex="1" parent="1">
          <mxGeometry x="640" y="1400" width="120" height="60" as="geometry" />
        </mxCell>
        <mxCell id="MA4NjYnAYvALY4JWosla-45" value="" style="endArrow=none;html=1;rounded=0;" edge="1" parent="1">
          <mxGeometry width="50" height="50" relative="1" as="geometry">
            <mxPoint x="340" y="1400" as="sourcePoint" />
            <mxPoint x="340" y="1340" as="targetPoint" />
          </mxGeometry>
        </mxCell>
        <mxCell id="MA4NjYnAYvALY4JWosla-46" value="" style="endArrow=none;html=1;rounded=0;" edge="1" parent="1">
          <mxGeometry width="50" height="50" relative="1" as="geometry">
            <mxPoint x="340" y="1340" as="sourcePoint" />
            <mxPoint x="580" y="1340" as="targetPoint" />
          </mxGeometry>
        </mxCell>
        <mxCell id="MA4NjYnAYvALY4JWosla-47" value="" style="endArrow=classic;html=1;rounded=0;entryX=0.5;entryY=0;entryDx=0;entryDy=0;" edge="1" parent="1" target="MA4NjYnAYvALY4JWosla-44">
          <mxGeometry width="50" height="50" relative="1" as="geometry">
            <mxPoint x="700" y="1310" as="sourcePoint" />
            <mxPoint x="750" y="1290" as="targetPoint" />
          </mxGeometry>
        </mxCell>
        <mxCell id="MA4NjYnAYvALY4JWosla-48" value="" style="endArrow=none;html=1;rounded=0;entryX=0.5;entryY=0;entryDx=0;entryDy=0;" edge="1" parent="1" target="MA4NjYnAYvALY4JWosla-41">
          <mxGeometry width="50" height="50" relative="1" as="geometry">
            <mxPoint x="460" y="1340" as="sourcePoint" />
            <mxPoint x="510" y="1290" as="targetPoint" />
          </mxGeometry>
        </mxCell>
        <mxCell id="MA4NjYnAYvALY4JWosla-49" value="" style="endArrow=none;html=1;rounded=0;entryX=0.5;entryY=0;entryDx=0;entryDy=0;" edge="1" parent="1" target="MA4NjYnAYvALY4JWosla-43">
          <mxGeometry width="50" height="50" relative="1" as="geometry">
            <mxPoint x="580" y="1340" as="sourcePoint" />
            <mxPoint x="630" y="1290" as="targetPoint" />
          </mxGeometry>
        </mxCell>
        <mxCell id="MA4NjYnAYvALY4JWosla-50" value="&lt;font size=&quot;1&quot;&gt;&lt;b style=&quot;font-size: 16px;&quot;&gt;Table name: QUANTITY&lt;/b&gt;&lt;/font&gt;" style="text;html=1;align=center;verticalAlign=middle;whiteSpace=wrap;rounded=0;" vertex="1" parent="1">
          <mxGeometry x="410" y="1260" width="210" height="60" as="geometry" />
        </mxCell>
        <mxCell id="MA4NjYnAYvALY4JWosla-51" value="&lt;b&gt;&lt;font style=&quot;font-size: 18px;&quot;&gt;The table in the second normal form (2NF) &lt;/font&gt;&lt;/b&gt;" style="text;html=1;align=center;verticalAlign=middle;whiteSpace=wrap;rounded=0;" vertex="1" parent="1">
          <mxGeometry x="330" y="1450" width="390" height="120" as="geometry" />
        </mxCell>
        <mxCell id="MA4NjYnAYvALY4JWosla-52" value="" style="endArrow=none;html=1;rounded=0;" edge="1" parent="1">
          <mxGeometry width="50" height="50" relative="1" as="geometry">
            <mxPoint x="580" y="1020" as="sourcePoint" />
            <mxPoint x="580" y="1060" as="targetPoint" />
          </mxGeometry>
        </mxCell>
        <mxCell id="MA4NjYnAYvALY4JWosla-53" value="" style="endArrow=none;html=1;rounded=0;" edge="1" parent="1">
          <mxGeometry width="50" height="50" relative="1" as="geometry">
            <mxPoint x="580" y="1060" as="sourcePoint" />
            <mxPoint x="700" y="1060" as="targetPoint" />
          </mxGeometry>
        </mxCell>
        <mxCell id="MA4NjYnAYvALY4JWosla-54" value="" style="endArrow=classic;html=1;rounded=0;entryX=0.5;entryY=1;entryDx=0;entryDy=0;" edge="1" parent="1" target="MA4NjYnAYvALY4JWosla-28">
          <mxGeometry width="50" height="50" relative="1" as="geometry">
            <mxPoint x="700" y="1060" as="sourcePoint" />
            <mxPoint x="750" y="1010" as="targetPoint" />
          </mxGeometry>
        </mxCell>
        <mxCell id="MA4NjYnAYvALY4JWosla-55" value="" style="endArrow=none;html=1;rounded=0;entryX=0.238;entryY=0.833;entryDx=0;entryDy=0;entryPerimeter=0;" edge="1" parent="1" target="MA4NjYnAYvALY4JWosla-50">
          <mxGeometry width="50" height="50" relative="1" as="geometry">
            <mxPoint x="460" y="1340" as="sourcePoint" />
            <mxPoint x="510" y="1290" as="targetPoint" />
          </mxGeometry>
        </mxCell>
        <mxCell id="MA4NjYnAYvALY4JWosla-56" value="" style="endArrow=none;html=1;rounded=0;" edge="1" parent="1">
          <mxGeometry width="50" height="50" relative="1" as="geometry">
            <mxPoint x="460" y="1310" as="sourcePoint" />
            <mxPoint x="700" y="1310" as="targetPoint" />
          </mxGeometry>
        </mxCell>
        <mxCell id="MA4NjYnAYvALY4JWosla-93" value="&lt;b&gt;&lt;u&gt;INV_NUM&lt;/u&gt;&lt;/b&gt;" style="rounded=0;whiteSpace=wrap;html=1;fillColor=#ffe6cc;strokeColor=#d79b00;" vertex="1" parent="1">
          <mxGeometry x="400" y="1750" width="130" height="60" as="geometry" />
        </mxCell>
        <mxCell id="MA4NjYnAYvALY4JWosla-94" value="SALE_DATE" style="rounded=0;whiteSpace=wrap;html=1;fillColor=#dae8fc;strokeColor=#6c8ebf;" vertex="1" parent="1">
          <mxGeometry x="530" y="1750" width="120" height="60" as="geometry" />
        </mxCell>
        <mxCell id="MA4NjYnAYvALY4JWosla-95" value="" style="endArrow=none;html=1;rounded=0;" edge="1" parent="1">
          <mxGeometry width="50" height="50" relative="1" as="geometry">
            <mxPoint x="470" y="1750" as="sourcePoint" />
            <mxPoint x="470" y="1690" as="targetPoint" />
          </mxGeometry>
        </mxCell>
        <mxCell id="MA4NjYnAYvALY4JWosla-96" value="" style="endArrow=none;html=1;rounded=0;" edge="1" parent="1">
          <mxGeometry width="50" height="50" relative="1" as="geometry">
            <mxPoint x="470" y="1690" as="sourcePoint" />
            <mxPoint x="590" y="1690" as="targetPoint" />
          </mxGeometry>
        </mxCell>
        <mxCell id="MA4NjYnAYvALY4JWosla-97" value="" style="endArrow=classic;html=1;rounded=0;entryX=0.5;entryY=0;entryDx=0;entryDy=0;" edge="1" target="MA4NjYnAYvALY4JWosla-94" parent="1">
          <mxGeometry width="50" height="50" relative="1" as="geometry">
            <mxPoint x="590" y="1690" as="sourcePoint" />
            <mxPoint x="640" y="1640" as="targetPoint" />
          </mxGeometry>
        </mxCell>
        <mxCell id="MA4NjYnAYvALY4JWosla-98" value="&lt;b&gt;&lt;font style=&quot;font-size: 16px;&quot;&gt;Table name: INVOICE&lt;/font&gt;&lt;/b&gt;" style="text;html=1;align=center;verticalAlign=middle;whiteSpace=wrap;rounded=0;" vertex="1" parent="1">
          <mxGeometry x="430" y="1650" width="200" height="30" as="geometry" />
        </mxCell>
        <mxCell id="MA4NjYnAYvALY4JWosla-99" value="&lt;b&gt;&lt;u&gt;PROD_NUM&lt;/u&gt;&lt;/b&gt;" style="rounded=0;whiteSpace=wrap;html=1;fillColor=#ffe6cc;strokeColor=#d79b00;" vertex="1" parent="1">
          <mxGeometry x="400" y="1970" width="130" height="60" as="geometry" />
        </mxCell>
        <mxCell id="MA4NjYnAYvALY4JWosla-100" value="PROD_LABEL" style="rounded=0;whiteSpace=wrap;html=1;fillColor=#dae8fc;strokeColor=#6c8ebf;" vertex="1" parent="1">
          <mxGeometry x="530" y="1970" width="120" height="60" as="geometry" />
        </mxCell>
        <mxCell id="MA4NjYnAYvALY4JWosla-101" value="PROD_PRICE" style="rounded=0;whiteSpace=wrap;html=1;fillColor=#dae8fc;strokeColor=#6c8ebf;" vertex="1" parent="1">
          <mxGeometry x="870" y="1970" width="120" height="60" as="geometry" />
        </mxCell>
        <mxCell id="MA4NjYnAYvALY4JWosla-102" value="" style="endArrow=none;html=1;rounded=0;" edge="1" parent="1">
          <mxGeometry width="50" height="50" relative="1" as="geometry">
            <mxPoint x="470" y="1970" as="sourcePoint" />
            <mxPoint x="470" y="1910" as="targetPoint" />
          </mxGeometry>
        </mxCell>
        <mxCell id="MA4NjYnAYvALY4JWosla-103" value="" style="endArrow=none;html=1;rounded=0;" edge="1" parent="1">
          <mxGeometry width="50" height="50" relative="1" as="geometry">
            <mxPoint x="470" y="1910" as="sourcePoint" />
            <mxPoint x="590" y="1910" as="targetPoint" />
          </mxGeometry>
        </mxCell>
        <mxCell id="MA4NjYnAYvALY4JWosla-105" value="" style="endArrow=classic;html=1;rounded=0;entryX=0.5;entryY=0;entryDx=0;entryDy=0;" edge="1" target="MA4NjYnAYvALY4JWosla-100" parent="1">
          <mxGeometry width="50" height="50" relative="1" as="geometry">
            <mxPoint x="590" y="1910" as="sourcePoint" />
            <mxPoint x="640" y="1860" as="targetPoint" />
          </mxGeometry>
        </mxCell>
        <mxCell id="MA4NjYnAYvALY4JWosla-106" value="&lt;font style=&quot;font-size: 16px;&quot;&gt;&lt;b&gt;&lt;font style=&quot;font-size: 16px;&quot;&gt;Table name: PRODUCT&lt;/font&gt;&lt;/b&gt;&lt;/font&gt;" style="text;html=1;align=center;verticalAlign=middle;whiteSpace=wrap;rounded=0;" vertex="1" parent="1">
          <mxGeometry x="350" y="1860" width="360" height="40" as="geometry" />
        </mxCell>
        <mxCell id="MA4NjYnAYvALY4JWosla-107" value="&lt;b&gt;&lt;u&gt;VEND_CODE&lt;/u&gt;&lt;/b&gt;" style="rounded=0;whiteSpace=wrap;html=1;fillColor=#ffe6cc;strokeColor=#d79b00;" vertex="1" parent="1">
          <mxGeometry x="400" y="2190" width="130" height="60" as="geometry" />
        </mxCell>
        <mxCell id="MA4NjYnAYvALY4JWosla-108" value="VEND_NAME" style="rounded=0;whiteSpace=wrap;html=1;fillColor=#dae8fc;strokeColor=#6c8ebf;" vertex="1" parent="1">
          <mxGeometry x="530" y="2190" width="120" height="60" as="geometry" />
        </mxCell>
        <mxCell id="MA4NjYnAYvALY4JWosla-109" value="" style="endArrow=none;html=1;rounded=0;" edge="1" parent="1">
          <mxGeometry width="50" height="50" relative="1" as="geometry">
            <mxPoint x="470" y="2190" as="sourcePoint" />
            <mxPoint x="470" y="2130" as="targetPoint" />
          </mxGeometry>
        </mxCell>
        <mxCell id="MA4NjYnAYvALY4JWosla-110" value="" style="endArrow=none;html=1;rounded=0;" edge="1" parent="1">
          <mxGeometry width="50" height="50" relative="1" as="geometry">
            <mxPoint x="470" y="2130" as="sourcePoint" />
            <mxPoint x="590" y="2130" as="targetPoint" />
          </mxGeometry>
        </mxCell>
        <mxCell id="MA4NjYnAYvALY4JWosla-111" value="" style="endArrow=classic;html=1;rounded=0;entryX=0.5;entryY=0;entryDx=0;entryDy=0;" edge="1" target="MA4NjYnAYvALY4JWosla-108" parent="1">
          <mxGeometry width="50" height="50" relative="1" as="geometry">
            <mxPoint x="590" y="2130" as="sourcePoint" />
            <mxPoint x="640" y="2080" as="targetPoint" />
          </mxGeometry>
        </mxCell>
        <mxCell id="MA4NjYnAYvALY4JWosla-112" value="&lt;font size=&quot;1&quot;&gt;&lt;b style=&quot;font-size: 16px;&quot;&gt;Table name: VENDOR&lt;/b&gt;&lt;/font&gt;" style="text;html=1;align=center;verticalAlign=middle;whiteSpace=wrap;rounded=0;" vertex="1" parent="1">
          <mxGeometry x="440" y="2090" width="180" height="30" as="geometry" />
        </mxCell>
        <mxCell id="MA4NjYnAYvALY4JWosla-113" value="&lt;b&gt;&lt;u&gt;PROD_NUM&lt;/u&gt;&lt;/b&gt;" style="rounded=0;whiteSpace=wrap;html=1;fillColor=#ffe6cc;strokeColor=#d79b00;" vertex="1" parent="1">
          <mxGeometry x="410" y="2410" width="120" height="60" as="geometry" />
        </mxCell>
        <mxCell id="MA4NjYnAYvALY4JWosla-114" value="&lt;b&gt;&lt;u&gt;INV_NUM&lt;/u&gt;&lt;/b&gt;" style="rounded=0;whiteSpace=wrap;html=1;fillColor=#ffe6cc;strokeColor=#d79b00;" vertex="1" parent="1">
          <mxGeometry x="280" y="2410" width="130" height="60" as="geometry" />
        </mxCell>
        <mxCell id="MA4NjYnAYvALY4JWosla-115" value="&lt;b&gt;&lt;u&gt;VEND_CODE&lt;/u&gt;&lt;/b&gt;" style="rounded=0;whiteSpace=wrap;html=1;fillColor=#ffe6cc;strokeColor=#d79b00;" vertex="1" parent="1">
          <mxGeometry x="530" y="2410" width="120" height="60" as="geometry" />
        </mxCell>
        <mxCell id="MA4NjYnAYvALY4JWosla-116" value="QUANT_SOLD" style="rounded=0;whiteSpace=wrap;html=1;fillColor=#dae8fc;strokeColor=#6c8ebf;" vertex="1" parent="1">
          <mxGeometry x="650" y="2410" width="120" height="60" as="geometry" />
        </mxCell>
        <mxCell id="MA4NjYnAYvALY4JWosla-117" value="" style="endArrow=none;html=1;rounded=0;" edge="1" parent="1">
          <mxGeometry width="50" height="50" relative="1" as="geometry">
            <mxPoint x="350" y="2410" as="sourcePoint" />
            <mxPoint x="350" y="2350" as="targetPoint" />
            <Array as="points">
              <mxPoint x="350" y="2380" />
            </Array>
          </mxGeometry>
        </mxCell>
        <mxCell id="MA4NjYnAYvALY4JWosla-118" value="" style="endArrow=none;html=1;rounded=0;" edge="1" parent="1">
          <mxGeometry width="50" height="50" relative="1" as="geometry">
            <mxPoint x="350" y="2350" as="sourcePoint" />
            <mxPoint x="590" y="2350" as="targetPoint" />
          </mxGeometry>
        </mxCell>
        <mxCell id="MA4NjYnAYvALY4JWosla-119" value="" style="endArrow=classic;html=1;rounded=0;entryX=0.5;entryY=0;entryDx=0;entryDy=0;" edge="1" target="MA4NjYnAYvALY4JWosla-116" parent="1">
          <mxGeometry width="50" height="50" relative="1" as="geometry">
            <mxPoint x="710" y="2320" as="sourcePoint" />
            <mxPoint x="760" y="2300" as="targetPoint" />
          </mxGeometry>
        </mxCell>
        <mxCell id="MA4NjYnAYvALY4JWosla-120" value="" style="endArrow=none;html=1;rounded=0;entryX=0.5;entryY=0;entryDx=0;entryDy=0;" edge="1" target="MA4NjYnAYvALY4JWosla-113" parent="1">
          <mxGeometry width="50" height="50" relative="1" as="geometry">
            <mxPoint x="470" y="2350" as="sourcePoint" />
            <mxPoint x="520" y="2300" as="targetPoint" />
          </mxGeometry>
        </mxCell>
        <mxCell id="MA4NjYnAYvALY4JWosla-121" value="" style="endArrow=none;html=1;rounded=0;entryX=0.5;entryY=0;entryDx=0;entryDy=0;" edge="1" target="MA4NjYnAYvALY4JWosla-115" parent="1">
          <mxGeometry width="50" height="50" relative="1" as="geometry">
            <mxPoint x="590" y="2350" as="sourcePoint" />
            <mxPoint x="640" y="2300" as="targetPoint" />
          </mxGeometry>
        </mxCell>
        <mxCell id="MA4NjYnAYvALY4JWosla-122" value="&lt;font size=&quot;1&quot;&gt;&lt;b style=&quot;font-size: 16px;&quot;&gt;Table name: QUANTITY&lt;/b&gt;&lt;/font&gt;" style="text;html=1;align=center;verticalAlign=middle;whiteSpace=wrap;rounded=0;" vertex="1" parent="1">
          <mxGeometry x="410" y="2270" width="220" height="60" as="geometry" />
        </mxCell>
        <mxCell id="MA4NjYnAYvALY4JWosla-123" value="&lt;b&gt;&lt;font style=&quot;font-size: 18px;&quot;&gt;The table in the third normal form (3NF) &lt;/font&gt;&lt;/b&gt;" style="text;html=1;align=center;verticalAlign=middle;whiteSpace=wrap;rounded=0;" vertex="1" parent="1">
          <mxGeometry x="340" y="2460" width="390" height="120" as="geometry" />
        </mxCell>
        <mxCell id="MA4NjYnAYvALY4JWosla-127" value="" style="endArrow=none;html=1;rounded=0;" edge="1" parent="1">
          <mxGeometry width="50" height="50" relative="1" as="geometry">
            <mxPoint x="470" y="2350" as="sourcePoint" />
            <mxPoint x="470" y="2320" as="targetPoint" />
          </mxGeometry>
        </mxCell>
        <mxCell id="MA4NjYnAYvALY4JWosla-128" value="" style="endArrow=none;html=1;rounded=0;" edge="1" parent="1">
          <mxGeometry width="50" height="50" relative="1" as="geometry">
            <mxPoint x="470" y="2320" as="sourcePoint" />
            <mxPoint x="710" y="2320" as="targetPoint" />
          </mxGeometry>
        </mxCell>
        <mxCell id="MA4NjYnAYvALY4JWosla-129" value="&lt;b&gt;&lt;u&gt;PROD_LABEL&lt;/u&gt;&lt;/b&gt;" style="rounded=0;whiteSpace=wrap;html=1;fillColor=#ffe6cc;strokeColor=#d79b00;" vertex="1" parent="1">
          <mxGeometry x="750" y="1970" width="120" height="60" as="geometry" />
        </mxCell>
        <mxCell id="MA4NjYnAYvALY4JWosla-130" value="" style="endArrow=none;html=1;rounded=0;" edge="1" parent="1">
          <mxGeometry width="50" height="50" relative="1" as="geometry">
            <mxPoint x="810" y="1970" as="sourcePoint" />
            <mxPoint x="810" y="1910" as="targetPoint" />
          </mxGeometry>
        </mxCell>
        <mxCell id="MA4NjYnAYvALY4JWosla-131" value="" style="endArrow=none;html=1;rounded=0;" edge="1" parent="1">
          <mxGeometry width="50" height="50" relative="1" as="geometry">
            <mxPoint x="810" y="1910" as="sourcePoint" />
            <mxPoint x="930" y="1910" as="targetPoint" />
          </mxGeometry>
        </mxCell>
        <mxCell id="MA4NjYnAYvALY4JWosla-132" value="" style="endArrow=classic;html=1;rounded=0;entryX=0.5;entryY=0;entryDx=0;entryDy=0;" edge="1" parent="1" target="MA4NjYnAYvALY4JWosla-101">
          <mxGeometry width="50" height="50" relative="1" as="geometry">
            <mxPoint x="930" y="1910" as="sourcePoint" />
            <mxPoint x="980" y="1860" as="targetPoint" />
          </mxGeometry>
        </mxCell>
        <mxCell id="MA4NjYnAYvALY4JWosla-133" value="&lt;b&gt;&lt;font style=&quot;font-size: 16px;&quot;&gt;Table name: PRICE&lt;/font&gt;&lt;/b&gt;" style="text;html=1;align=center;verticalAlign=middle;whiteSpace=wrap;rounded=0;" vertex="1" parent="1">
          <mxGeometry x="780" y="1860" width="170" height="40" as="geometry" />
        </mxCell>
      </root>
    </mxGraphModel>
  </diagram>
</mxfile>
